# xmcd
#
# Track frame offsets: 
#        150
#        21937
#        39550
#        61650
#
# Disc length: 1111 seconds
#
# Revision: 2
# Processed by: cddbd v1.5.2PL0 Copyright (c) Steve Scherf et al.
# Submitted via: ExactAudioCopy v1.3
#
DISCID=29045504
DTITLE=The Moody Blues - Your wildest dreams [CDv)
DYEAR=1988
DGENRE=Rock
TTITLE0=Your wildest dreams
TTITLE1=Talkin` talkin`
TTITLE2=It may be fire
TTITLE3=Rock `n` roll over you
EXTD=
EXTT0=
EXTT1=
EXTT2=
EXTT3=
PLAYORDER=
